# xmcd
#
# Track frame offsets:
#	150
#	12537
#	27724
#	40102
#	55104
#	65597
#	76842
#	91194
#	106822
#	122044
#	134772
#
# Disc length: 1984 seconds
#
# Revision: 1
# Processed by: cddbd v1.5.2PL0 Copyright (c) Steve Scherf et al.
# Submitted via: audiograbber 1.83.01
#
DISCID=9107be0b
DTITLE=The Lawmen - The Southern Lawmen in Concert
DYEAR=1980
DGENRE=Country
TTITLE0=Somewhere My Love
TTITLE1=Carter Family Medley
TTITLE2=Butter Beans
TTITLE3=I Really Don't Want To Know
TTITLE4=Dueling Banjos
TTITLE5=It's Hard To Be Humble
TTITLE6=Love The World Away
TTITLE7=Another Somebody Done Somebody Wrong Song
TTITLE8=He Stopped Loving Her Today
TTITLE9=The Gambler
TTITLE10=Green Green Grass of Home
EXTD=
EXTT0=
EXTT1=
EXTT2=
EXTT3=
EXTT4=
EXTT5=
EXTT6=
EXTT7=
EXTT8=
EXTT9=
EXTT10=
PLAYORDER=
